<mxfile host="Electron" modified="2025-04-03T11:55:52.498Z" agent="Mozilla/5.0 (Windows NT 10.0; Win64; x64) AppleWebKit/537.36 (KHTML, like Gecko) draw.io/23.1.5 Chrome/120.0.6099.109 Electron/28.1.0 Safari/537.36" etag="irk5Kds3zqEHMW707nhF" version="23.1.5" type="device">
  <diagram id="diagram_1" name="Order Management System Architecture">
    <mxGraphModel dx="1660" dy="830" grid="1" gridSize="10" guides="1" tooltips="1" connect="1" arrows="1" fold="1" page="1" pageScale="1" pageWidth="1200" pageHeight="800" background="#ffffff" math="0" shadow="0">
      <root>
        <mxCell id="0" />
        <mxCell id="1" parent="0" />
        <mxCell id="AhsIYHOb15BW9wUO29X6-3" value="" style="rounded=1;whiteSpace=wrap;html=1;dashed=1;dashPattern=1 2;fillColor=#f5f5f5;fontColor=#333333;strokeColor=#666666;" parent="1" vertex="1">
          <mxGeometry x="620" y="150" width="204" height="380" as="geometry" />
        </mxCell>
        <mxCell id="client" value="Client" style="sketch=0;outlineConnect=0;fontColor=#232F3E;gradientColor=none;strokeColor=#232F3E;fillColor=#ffffff;dashed=0;verticalLabelPosition=bottom;verticalAlign=top;align=center;html=1;fontSize=12;fontStyle=0;aspect=fixed;shape=mxgraph.aws4.resourceIcon;resIcon=mxgraph.aws4.client;" parent="1" vertex="1">
          <mxGeometry x="173" y="231" width="60" height="60" as="geometry" />
        </mxCell>
        <mxCell id="oms_block" value="OrderManagementSystem API" style="swimlane;whiteSpace=wrap;html=1;fillColor=#e1d5e7;strokeColor=#9673a6;" parent="1" vertex="1">
          <mxGeometry x="245" y="170" width="245" height="400" as="geometry" />
        </mxCell>
        <mxCell id="MR5pOm0Wdy1TcqWOsnat-3" value="" style="rounded=1;whiteSpace=wrap;html=1;dashed=1;dashPattern=8 8;fillColor=none;" parent="oms_block" vertex="1">
          <mxGeometry x="-90" y="-53.25" width="690" height="480.5" as="geometry" />
        </mxCell>
        <mxCell id="order_service" value="Order&lt;br&gt;Service" style="rounded=1;whiteSpace=wrap;html=1;fillColor=#dae8fc;strokeColor=#6c8ebf;" parent="oms_block" vertex="1">
          <mxGeometry x="25" y="157" width="81" height="60" as="geometry" />
        </mxCell>
        <mxCell id="order_repo" value="Order&lt;br&gt;Repository" style="rounded=1;whiteSpace=wrap;html=1;fillColor=#dae8fc;strokeColor=#6c8ebf;" parent="oms_block" vertex="1">
          <mxGeometry x="25.5" y="301" width="80.5" height="60" as="geometry" />
        </mxCell>
        <mxCell id="localstack_layer" value="LocalStack" style="swimlane;whiteSpace=wrap;html=1;fillColor=#e1d5e7;strokeColor=#9673a6;" parent="oms_block" vertex="1">
          <mxGeometry x="402" width="148" height="270" as="geometry" />
        </mxCell>
        <mxCell id="ls_s3" value="S3" style="rounded=1;whiteSpace=wrap;html=1;fillColor=#ffffff;strokeColor=#9673a6;" parent="localstack_layer" vertex="1">
          <mxGeometry x="18" y="126" width="112" height="30" as="geometry" />
        </mxCell>
        <mxCell id="ls_sns" value="SNS" style="rounded=1;whiteSpace=wrap;html=1;fillColor=#ffffff;strokeColor=#9673a6;" parent="localstack_layer" vertex="1">
          <mxGeometry x="17" y="43" width="113" height="27" as="geometry" />
        </mxCell>
        <mxCell id="ls_sqs" value="SQS" style="rounded=1;whiteSpace=wrap;html=1;fillColor=#ffffff;strokeColor=#9673a6;" parent="localstack_layer" vertex="1">
          <mxGeometry x="20" y="171" width="110" height="30" as="geometry" />
        </mxCell>
        <mxCell id="ls_dynamodb" value="DynamoDB" style="rounded=1;whiteSpace=wrap;html=1;fillColor=#ffffff;strokeColor=#9673a6;" parent="localstack_layer" vertex="1">
          <mxGeometry x="18" y="83" width="112" height="30" as="geometry" />
        </mxCell>
        <mxCell id="service_to_repo" style="edgeStyle=orthogonalEdgeStyle;rounded=0;html=1;exitX=0.5;exitY=1;entryX=0.5;entryY=0;label=Save Order" parent="oms_block" source="order_service" target="order_repo" edge="1">
          <mxGeometry relative="1" as="geometry" />
        </mxCell>
        <mxCell id="service_to_dynamodb" value="Override &lt;br&gt;AWS Endpoint URL&lt;br&gt;= LocalStack URL" style="edgeStyle=orthogonalEdgeStyle;rounded=0;html=1;exitX=0.399;exitY=0.011;label=Log Metadata;exitDx=0;exitDy=0;exitPerimeter=0;labelBackgroundColor=none;spacingTop=11;spacingLeft=23;" parent="oms_block" edge="1">
          <mxGeometry x="0.2707" y="30" relative="1" as="geometry">
            <mxPoint x="218.90999999999985" y="157.65999999999997" as="sourcePoint" />
            <mxPoint x="401" y="100" as="targetPoint" />
            <Array as="points">
              <mxPoint x="191" y="158" />
              <mxPoint x="191" y="100" />
            </Array>
            <mxPoint as="offset" />
          </mxGeometry>
        </mxCell>
        <mxCell id="UVgOhtSd3i4ypvdV2Ima-1" value="Order&lt;br&gt;Controller" style="rounded=1;whiteSpace=wrap;html=1;fillColor=#dae8fc;strokeColor=#6c8ebf;" parent="oms_block" vertex="1">
          <mxGeometry x="25" y="60" width="81" height="60" as="geometry" />
        </mxCell>
        <mxCell id="UVgOhtSd3i4ypvdV2Ima-4" value="" style="endArrow=classic;html=1;rounded=0;exitX=0.5;exitY=1;exitDx=0;exitDy=0;" parent="oms_block" source="UVgOhtSd3i4ypvdV2Ima-1" target="order_service" edge="1">
          <mxGeometry width="50" height="50" relative="1" as="geometry">
            <mxPoint y="101" as="sourcePoint" />
            <mxPoint x="50" y="51" as="targetPoint" />
          </mxGeometry>
        </mxCell>
        <mxCell id="AhsIYHOb15BW9wUO29X6-2" value="" style="edgeStyle=orthogonalEdgeStyle;rounded=0;html=1;exitX=1;exitY=0.5;entryX=0;entryY=0.5;label=Log Metadata" parent="oms_block" source="order_service" target="AhsIYHOb15BW9wUO29X6-1" edge="1">
          <mxGeometry relative="1" as="geometry">
            <mxPoint x="330" y="257" as="sourcePoint" />
            <mxPoint x="627" y="357" as="targetPoint" />
          </mxGeometry>
        </mxCell>
        <mxCell id="AhsIYHOb15BW9wUO29X6-1" value="AWS SDK&lt;br&gt;Clients" style="rounded=1;whiteSpace=wrap;html=1;fillColor=#ffe6cc;strokeColor=#d79b00;" parent="oms_block" vertex="1">
          <mxGeometry x="144" y="157" width="81" height="60" as="geometry" />
        </mxCell>
        <mxCell id="UVgOhtSd3i4ypvdV2Ima-3" value="" style="endArrow=classic;html=1;rounded=0;entryX=0;entryY=0.5;entryDx=0;entryDy=0;" parent="1" source="client" target="UVgOhtSd3i4ypvdV2Ima-1" edge="1">
          <mxGeometry width="50" height="50" relative="1" as="geometry">
            <mxPoint x="84" y="270" as="sourcePoint" />
            <mxPoint x="134" y="220" as="targetPoint" />
          </mxGeometry>
        </mxCell>
        <mxCell id="ls_aurora_postgres" value="PostgreSQL" style="rounded=1;whiteSpace=wrap;html=1;fillColor=#ffffff;strokeColor=#9673a6;" parent="1" vertex="1">
          <mxGeometry x="654" y="486" width="135" height="29" as="geometry" />
        </mxCell>
        <mxCell id="repo_to_aurora" value="DB Host = Localhost&amp;nbsp;&amp;nbsp;" style="edgeStyle=orthogonalEdgeStyle;rounded=0;html=1;exitX=1;exitY=0.5;entryX=0;entryY=0.5;spacingTop=-15;" parent="1" source="order_repo" target="ls_aurora_postgres" edge="1">
          <mxGeometry x="-0.4794" y="11" relative="1" as="geometry">
            <mxPoint as="offset" />
          </mxGeometry>
        </mxCell>
        <mxCell id="AhsIYHOb15BW9wUO29X6-4" value="Localhost" style="text;html=1;align=center;verticalAlign=middle;whiteSpace=wrap;rounded=0;fontSize=13;" parent="1" vertex="1">
          <mxGeometry x="444" y="89.5" width="108" height="30" as="geometry" />
        </mxCell>
        <mxCell id="AhsIYHOb15BW9wUO29X6-5" value="Docker Containers" style="text;html=1;align=center;verticalAlign=middle;whiteSpace=wrap;rounded=0;" parent="1" vertex="1">
          <mxGeometry x="654" y="124.5" width="130" height="30" as="geometry" />
        </mxCell>
        <mxCell id="AhsIYHOb15BW9wUO29X6-15" value="AWS Cloud" style="sketch=0;outlineConnect=0;gradientColor=none;html=1;whiteSpace=wrap;fontSize=12;fontStyle=0;shape=mxgraph.aws4.group;grIcon=mxgraph.aws4.group_aws_cloud;strokeColor=#AAB7B8;fillColor=none;verticalAlign=top;align=left;spacingLeft=30;fontColor=#AAB7B8;dashed=0;" parent="1" vertex="1">
          <mxGeometry x="155" y="718" width="700" height="310" as="geometry" />
        </mxCell>
        <mxCell id="AhsIYHOb15BW9wUO29X6-18" value="Amazon SNS" style="sketch=0;points=[[0,0,0],[0.25,0,0],[0.5,0,0],[0.75,0,0],[1,0,0],[0,1,0],[0.25,1,0],[0.5,1,0],[0.75,1,0],[1,1,0],[0,0.25,0],[0,0.5,0],[0,0.75,0],[1,0.25,0],[1,0.5,0],[1,0.75,0]];outlineConnect=0;fontColor=#232F3E;fillColor=#E7157B;strokeColor=#ffffff;dashed=0;verticalLabelPosition=bottom;verticalAlign=top;align=center;html=1;fontSize=12;fontStyle=0;aspect=fixed;shape=mxgraph.aws4.resourceIcon;resIcon=mxgraph.aws4.sns;" parent="1" vertex="1">
          <mxGeometry x="612" y="788" width="50" height="50" as="geometry" />
        </mxCell>
        <mxCell id="AhsIYHOb15BW9wUO29X6-19" value="Amazon SQS" style="sketch=0;points=[[0,0,0],[0.25,0,0],[0.5,0,0],[0.75,0,0],[1,0,0],[0,1,0],[0.25,1,0],[0.5,1,0],[0.75,1,0],[1,1,0],[0,0.25,0],[0,0.5,0],[0,0.75,0],[1,0.25,0],[1,0.5,0],[1,0.75,0]];outlineConnect=0;fontColor=#232F3E;fillColor=#E7157B;strokeColor=#ffffff;dashed=0;verticalLabelPosition=bottom;verticalAlign=top;align=center;html=1;fontSize=12;fontStyle=0;aspect=fixed;shape=mxgraph.aws4.resourceIcon;resIcon=mxgraph.aws4.sqs;" parent="1" vertex="1">
          <mxGeometry x="692" y="788" width="50" height="50" as="geometry" />
        </mxCell>
        <mxCell id="AhsIYHOb15BW9wUO29X6-20" value="Amazon S3" style="sketch=0;points=[[0,0,0],[0.25,0,0],[0.5,0,0],[0.75,0,0],[1,0,0],[0,1,0],[0.25,1,0],[0.5,1,0],[0.75,1,0],[1,1,0],[0,0.25,0],[0,0.5,0],[0,0.75,0],[1,0.25,0],[1,0.5,0],[1,0.75,0]];outlineConnect=0;fontColor=#232F3E;fillColor=#7AA116;strokeColor=#ffffff;dashed=0;verticalLabelPosition=bottom;verticalAlign=top;align=center;html=1;fontSize=12;fontStyle=0;aspect=fixed;shape=mxgraph.aws4.resourceIcon;resIcon=mxgraph.aws4.s3;" parent="1" vertex="1">
          <mxGeometry x="772" y="788" width="50" height="50" as="geometry" />
        </mxCell>
        <mxCell id="AhsIYHOb15BW9wUO29X6-21" value="Amazon&lt;br&gt;DynamoDB" style="sketch=0;points=[[0,0,0],[0.25,0,0],[0.5,0,0],[0.75,0,0],[1,0,0],[0,1,0],[0.25,1,0],[0.5,1,0],[0.75,1,0],[1,1,0],[0,0.25,0],[0,0.5,0],[0,0.75,0],[1,0.25,0],[1,0.5,0],[1,0.75,0]];outlineConnect=0;fontColor=#232F3E;fillColor=#C925D1;strokeColor=#ffffff;dashed=0;verticalLabelPosition=bottom;verticalAlign=top;align=center;html=1;fontSize=12;fontStyle=0;aspect=fixed;shape=mxgraph.aws4.resourceIcon;resIcon=mxgraph.aws4.dynamodb;" parent="1" vertex="1">
          <mxGeometry x="612" y="877" width="50" height="50" as="geometry" />
        </mxCell>
        <mxCell id="AhsIYHOb15BW9wUO29X6-22" value="Amazon Aurora &lt;br&gt;PostgreSQL" style="sketch=0;points=[[0,0,0],[0.25,0,0],[0.5,0,0],[0.75,0,0],[1,0,0],[0,1,0],[0.25,1,0],[0.5,1,0],[0.75,1,0],[1,1,0],[0,0.25,0],[0,0.5,0],[0,0.75,0],[1,0.25,0],[1,0.5,0],[1,0.75,0]];outlineConnect=0;fontColor=#232F3E;fillColor=#C925D1;strokeColor=#ffffff;dashed=0;verticalLabelPosition=bottom;verticalAlign=top;align=center;html=1;fontSize=12;fontStyle=0;aspect=fixed;shape=mxgraph.aws4.resourceIcon;resIcon=mxgraph.aws4.aurora;" parent="1" vertex="1">
          <mxGeometry x="692" y="877" width="50" height="50" as="geometry" />
        </mxCell>
        <mxCell id="kDP-I_JEvBrIbVLtBMfw-1" value="Amazon ECR" style="sketch=0;points=[[0,0,0],[0.25,0,0],[0.5,0,0],[0.75,0,0],[1,0,0],[0,1,0],[0.25,1,0],[0.5,1,0],[0.75,1,0],[1,1,0],[0,0.25,0],[0,0.5,0],[0,0.75,0],[1,0.25,0],[1,0.5,0],[1,0.75,0]];outlineConnect=0;fontColor=#232F3E;fillColor=#ED7100;strokeColor=#ffffff;dashed=0;verticalLabelPosition=bottom;verticalAlign=top;align=center;html=1;fontSize=12;fontStyle=0;aspect=fixed;shape=mxgraph.aws4.resourceIcon;resIcon=mxgraph.aws4.ecr;" parent="1" vertex="1">
          <mxGeometry x="188" y="848" width="50" height="50" as="geometry" />
        </mxCell>
        <mxCell id="kDP-I_JEvBrIbVLtBMfw-5" style="edgeStyle=orthogonalEdgeStyle;rounded=0;orthogonalLoop=1;jettySize=auto;html=1;" parent="1" source="kDP-I_JEvBrIbVLtBMfw-2" target="kDP-I_JEvBrIbVLtBMfw-1" edge="1">
          <mxGeometry relative="1" as="geometry" />
        </mxCell>
        <mxCell id="kDP-I_JEvBrIbVLtBMfw-2" value="Containerize" style="rounded=0;whiteSpace=wrap;html=1;" parent="1" vertex="1">
          <mxGeometry x="265" y="662" width="129" height="40" as="geometry" />
        </mxCell>
        <mxCell id="kDP-I_JEvBrIbVLtBMfw-3" style="edgeStyle=orthogonalEdgeStyle;rounded=0;orthogonalLoop=1;jettySize=auto;html=1;entryX=0.45;entryY=-0.075;entryDx=0;entryDy=0;entryPerimeter=0;" parent="1" source="oms_block" target="kDP-I_JEvBrIbVLtBMfw-2" edge="1">
          <mxGeometry relative="1" as="geometry">
            <Array as="points">
              <mxPoint x="323" y="600" />
              <mxPoint x="323" y="600" />
            </Array>
          </mxGeometry>
        </mxCell>
        <mxCell id="kDP-I_JEvBrIbVLtBMfw-4" value="Region" style="points=[[0,0],[0.25,0],[0.5,0],[0.75,0],[1,0],[1,0.25],[1,0.5],[1,0.75],[1,1],[0.75,1],[0.5,1],[0.25,1],[0,1],[0,0.75],[0,0.5],[0,0.25]];outlineConnect=0;gradientColor=none;html=1;whiteSpace=wrap;fontSize=12;fontStyle=0;container=1;pointerEvents=0;collapsible=0;recursiveResize=0;shape=mxgraph.aws4.group;grIcon=mxgraph.aws4.group_region;strokeColor=#00A4A6;fillColor=none;verticalAlign=top;align=left;spacingLeft=30;fontColor=#147EBA;dashed=1;" parent="1" vertex="1">
          <mxGeometry x="175" y="748" width="660" height="260" as="geometry" />
        </mxCell>
        <mxCell id="kDP-I_JEvBrIbVLtBMfw-18" style="edgeStyle=orthogonalEdgeStyle;rounded=0;orthogonalLoop=1;jettySize=auto;html=1;" parent="kDP-I_JEvBrIbVLtBMfw-4" edge="1">
          <mxGeometry relative="1" as="geometry">
            <mxPoint x="396" y="127" as="targetPoint" />
            <mxPoint x="197" y="203" as="sourcePoint" />
            <Array as="points">
              <mxPoint x="240" y="203" />
              <mxPoint x="240" y="127" />
            </Array>
          </mxGeometry>
        </mxCell>
        <mxCell id="kDP-I_JEvBrIbVLtBMfw-16" style="edgeStyle=orthogonalEdgeStyle;rounded=0;orthogonalLoop=1;jettySize=auto;html=1;entryX=0.1;entryY=0.5;entryDx=0;entryDy=0;entryPerimeter=0;" parent="kDP-I_JEvBrIbVLtBMfw-4" source="kDP-I_JEvBrIbVLtBMfw-6" target="kDP-I_JEvBrIbVLtBMfw-15" edge="1">
          <mxGeometry relative="1" as="geometry">
            <Array as="points">
              <mxPoint x="240" y="46" />
              <mxPoint x="240" y="127" />
            </Array>
          </mxGeometry>
        </mxCell>
        <mxCell id="kDP-I_JEvBrIbVLtBMfw-17" style="edgeStyle=orthogonalEdgeStyle;rounded=0;orthogonalLoop=1;jettySize=auto;html=1;entryX=0.1;entryY=0.5;entryDx=0;entryDy=0;entryPerimeter=0;" parent="kDP-I_JEvBrIbVLtBMfw-4" source="kDP-I_JEvBrIbVLtBMfw-7" target="kDP-I_JEvBrIbVLtBMfw-15" edge="1">
          <mxGeometry relative="1" as="geometry" />
        </mxCell>
        <mxCell id="kDP-I_JEvBrIbVLtBMfw-6" value="Amazon EC2" style="sketch=0;points=[[0,0,0],[0.25,0,0],[0.5,0,0],[0.75,0,0],[1,0,0],[0,1,0],[0.25,1,0],[0.5,1,0],[0.75,1,0],[1,1,0],[0,0.25,0],[0,0.5,0],[0,0.75,0],[1,0.25,0],[1,0.5,0],[1,0.75,0]];outlineConnect=0;fontColor=#232F3E;fillColor=#ED7100;strokeColor=#ffffff;dashed=0;verticalLabelPosition=bottom;verticalAlign=top;align=center;html=1;fontSize=12;fontStyle=0;aspect=fixed;shape=mxgraph.aws4.resourceIcon;resIcon=mxgraph.aws4.ec2;" parent="kDP-I_JEvBrIbVLtBMfw-4" vertex="1">
          <mxGeometry x="140" y="20" width="51" height="51" as="geometry" />
        </mxCell>
        <mxCell id="kDP-I_JEvBrIbVLtBMfw-7" value="Amazon ECS" style="sketch=0;points=[[0,0,0],[0.25,0,0],[0.5,0,0],[0.75,0,0],[1,0,0],[0,1,0],[0.25,1,0],[0.5,1,0],[0.75,1,0],[1,1,0],[0,0.25,0],[0,0.5,0],[0,0.75,0],[1,0.25,0],[1,0.5,0],[1,0.75,0]];outlineConnect=0;fontColor=#232F3E;fillColor=#ED7100;strokeColor=#ffffff;dashed=0;verticalLabelPosition=bottom;verticalAlign=top;align=center;html=1;fontSize=12;fontStyle=0;aspect=fixed;shape=mxgraph.aws4.resourceIcon;resIcon=mxgraph.aws4.ecs;" parent="kDP-I_JEvBrIbVLtBMfw-4" vertex="1">
          <mxGeometry x="140" y="100" width="50" height="50" as="geometry" />
        </mxCell>
        <mxCell id="kDP-I_JEvBrIbVLtBMfw-8" value="Amazon EKS" style="sketch=0;points=[[0,0,0],[0.25,0,0],[0.5,0,0],[0.75,0,0],[1,0,0],[0,1,0],[0.25,1,0],[0.5,1,0],[0.75,1,0],[1,1,0],[0,0.25,0],[0,0.5,0],[0,0.75,0],[1,0.25,0],[1,0.5,0],[1,0.75,0]];outlineConnect=0;fontColor=#232F3E;fillColor=#ED7100;strokeColor=#ffffff;dashed=0;verticalLabelPosition=bottom;verticalAlign=top;align=center;html=1;fontSize=12;fontStyle=0;aspect=fixed;shape=mxgraph.aws4.resourceIcon;resIcon=mxgraph.aws4.eks;" parent="kDP-I_JEvBrIbVLtBMfw-4" vertex="1">
          <mxGeometry x="143" y="182" width="48" height="48" as="geometry" />
        </mxCell>
        <mxCell id="kDP-I_JEvBrIbVLtBMfw-15" value="" style="shape=curlyBracket;whiteSpace=wrap;html=1;rounded=1;labelPosition=left;verticalLabelPosition=middle;align=right;verticalAlign=middle;" parent="kDP-I_JEvBrIbVLtBMfw-4" vertex="1">
          <mxGeometry x="394" y="32" width="20" height="190" as="geometry" />
        </mxCell>
        <mxCell id="kDP-I_JEvBrIbVLtBMfw-9" value="IAM Role" style="sketch=0;outlineConnect=0;fontColor=#232F3E;gradientColor=none;fillColor=#DD344C;strokeColor=none;dashed=0;verticalLabelPosition=bottom;verticalAlign=top;align=center;html=1;fontSize=12;fontStyle=0;aspect=fixed;pointerEvents=1;shape=mxgraph.aws4.role;labelBackgroundColor=default;" parent="kDP-I_JEvBrIbVLtBMfw-4" vertex="1">
          <mxGeometry x="240" y="80" width="62.05" height="35" as="geometry" />
        </mxCell>
        <mxCell id="kDP-I_JEvBrIbVLtBMfw-10" style="edgeStyle=orthogonalEdgeStyle;rounded=0;orthogonalLoop=1;jettySize=auto;html=1;entryX=0;entryY=0.5;entryDx=0;entryDy=0;entryPerimeter=0;" parent="1" source="kDP-I_JEvBrIbVLtBMfw-1" target="kDP-I_JEvBrIbVLtBMfw-6" edge="1">
          <mxGeometry relative="1" as="geometry">
            <Array as="points">
              <mxPoint x="275" y="873" />
              <mxPoint x="275" y="794" />
            </Array>
          </mxGeometry>
        </mxCell>
        <mxCell id="kDP-I_JEvBrIbVLtBMfw-11" style="edgeStyle=orthogonalEdgeStyle;rounded=0;orthogonalLoop=1;jettySize=auto;html=1;entryX=0;entryY=0.5;entryDx=0;entryDy=0;entryPerimeter=0;" parent="1" source="kDP-I_JEvBrIbVLtBMfw-1" target="kDP-I_JEvBrIbVLtBMfw-8" edge="1">
          <mxGeometry relative="1" as="geometry">
            <Array as="points">
              <mxPoint x="275" y="873" />
              <mxPoint x="275" y="954" />
            </Array>
          </mxGeometry>
        </mxCell>
        <mxCell id="kDP-I_JEvBrIbVLtBMfw-12" style="edgeStyle=orthogonalEdgeStyle;rounded=0;orthogonalLoop=1;jettySize=auto;html=1;entryX=0;entryY=0.5;entryDx=0;entryDy=0;entryPerimeter=0;" parent="1" source="kDP-I_JEvBrIbVLtBMfw-1" target="kDP-I_JEvBrIbVLtBMfw-7" edge="1">
          <mxGeometry relative="1" as="geometry" />
        </mxCell>
        <mxCell id="kDP-I_JEvBrIbVLtBMfw-20" value="" style="line;strokeWidth=2;html=1;" parent="1" vertex="1">
          <mxGeometry x="123" y="630" width="767" height="10" as="geometry" />
        </mxCell>
        <mxCell id="kDP-I_JEvBrIbVLtBMfw-21" value="Out out scope of this repository" style="text;html=1;align=center;verticalAlign=middle;whiteSpace=wrap;rounded=0;" parent="1" vertex="1">
          <mxGeometry x="640" y="640" width="220" height="30" as="geometry" />
        </mxCell>
        <mxCell id="Ib3uyOg6wethZe_UL5YX-1" value="Secrets Manager" style="rounded=1;whiteSpace=wrap;html=1;fillColor=#ffffff;strokeColor=#9673a6;" vertex="1" parent="1">
          <mxGeometry x="667" y="388" width="110" height="30" as="geometry" />
        </mxCell>
        <mxCell id="Ib3uyOg6wethZe_UL5YX-2" value="AWS&lt;br&gt;Secrets&lt;br&gt;Manager" style="sketch=0;points=[[0,0,0],[0.25,0,0],[0.5,0,0],[0.75,0,0],[1,0,0],[0,1,0],[0.25,1,0],[0.5,1,0],[0.75,1,0],[1,1,0],[0,0.25,0],[0,0.5,0],[0,0.75,0],[1,0.25,0],[1,0.5,0],[1,0.75,0]];outlineConnect=0;fontColor=#232F3E;fillColor=#DD344C;strokeColor=#ffffff;dashed=0;verticalLabelPosition=bottom;verticalAlign=top;align=center;html=1;fontSize=12;fontStyle=0;aspect=fixed;shape=mxgraph.aws4.resourceIcon;resIcon=mxgraph.aws4.secrets_manager;" vertex="1" parent="1">
          <mxGeometry x="772" y="879" width="48" height="48" as="geometry" />
        </mxCell>
      </root>
    </mxGraphModel>
  </diagram>
</mxfile>
